# xmcd CD database file
#
# Track frame offsets:
#	150
#	15450
#	26807
#	43395
#	57090
#	67905
#	80835
#	94535
#	113132
#	130610
#	145992
#	162500
#	176020
#	191585
#	207572
#	222902
#	238897
#	254365
#
# Disc length: 3639 seconds
#
# Revision: 1
# Processed by: cddbd v1.5.2PL0 Copyright (c) Steve Scherf et al.
# Submitted via: CDex 1.70beta1
#
DISCID=0a0e3512
DTITLE=Tracy Byrd - Greatest Hits (Australian Edition)
DYEAR=1999
DGENRE=Country
TTITLE0=Someone To Give My Love To
TTITLE1=Holdin' Heaven
TTITLE2=An Out Of Control Raging Fire
TTITLE3=Talk To Me Texas
TTITLE4=The First Step
TTITLE5=Lifestyles Of The Not So Rich and Famous
TTITLE6=Watermelon Crawl
TTITLE7=The Keeper Of The Stars
TTITLE8=Love Lessons
TTITLE9=Heaven In My Woman's Eyes
TTITLE10=Big Love
TTITLE11=Good Ol' Fashioned Love
TTITLE12=Don't Take Her She's All I Got
TTITLE13=I'm From The Country
TTITLE14=I Wanna Feel That Way Again
TTITLE15=She Loves Me Not
TTITLE16=When Mama Ain't Happy
TTITLE17=Business As Usual
EXTD=YEAR: 1999
EXTT0=
EXTT1=
EXTT2=
EXTT3=
EXTT4=
EXTT5=
EXTT6=
EXTT7=
EXTT8=
EXTT9=
EXTT10=
EXTT11=
EXTT12=
EXTT13=
EXTT14=
EXTT15=
EXTT16=
EXTT17=
PLAYORDER=
